<svg width="800" height="800" viewBox="0 0 800 800" fill="none" xmlns="http://www.w3.org/2000/svg">
<g clip-path="url(#clip0_320_7)">
<mask id="path-1-inside-1_320_7" fill="white">
<path d="M223.27 73.2203C246.484 50.0066 274.042 31.5925 304.373 19.0293C334.703 6.46617 367.21 -4.30502e-06 400.039 0C432.869 4.30502e-06 465.376 6.46618 495.706 19.0294C526.037 31.5925 553.595 50.0066 576.809 73.2203L506.079 143.95C492.154 130.025 475.622 118.979 457.428 111.442C439.233 103.906 419.733 100.027 400.039 100.027C380.346 100.027 360.846 103.906 342.651 111.442C324.457 118.979 307.925 130.025 294 143.95L223.27 73.2203Z"/>
</mask>
<path d="M223.27 73.2203C246.484 50.0066 274.042 31.5925 304.373 19.0293C334.703 6.46617 367.21 -4.30502e-06 400.039 0C432.869 4.30502e-06 465.376 6.46618 495.706 19.0294C526.037 31.5925 553.595 50.0066 576.809 73.2203L506.079 143.95C492.154 130.025 475.622 118.979 457.428 111.442C439.233 103.906 419.733 100.027 400.039 100.027C380.346 100.027 360.846 103.906 342.651 111.442C324.457 118.979 307.925 130.025 294 143.95L223.27 73.2203Z" stroke="white" stroke-width="199.992" mask="url(#path-1-inside-1_320_7)"/>
<mask id="path-2-inside-2_320_7" fill="white">
<path d="M577.796 272.24C614.341 272.24 650.322 281.253 682.553 298.481C714.783 315.708 742.267 340.618 762.571 371.005C782.874 401.391 795.371 436.316 798.953 472.686C802.535 509.055 797.092 545.747 783.107 579.51C769.121 613.274 747.025 643.067 718.775 666.252C690.525 689.436 656.993 705.295 621.15 712.425C585.307 719.554 548.258 717.734 513.286 707.126C478.315 696.517 446.499 677.448 420.657 651.606L483.644 588.62C499.127 604.103 518.19 615.529 539.144 621.885C560.098 628.241 582.296 629.332 603.772 625.06C625.248 620.788 645.339 611.286 662.266 597.395C679.192 583.503 692.431 565.652 700.811 545.422C709.19 525.192 712.451 503.208 710.305 481.417C708.159 459.625 700.672 438.7 688.506 420.493C676.341 402.286 659.874 387.361 640.562 377.039C621.251 366.717 599.692 361.317 577.796 361.317V272.24Z"/>
</mask>
<path d="M577.796 272.24C614.341 272.24 650.322 281.253 682.553 298.481C714.783 315.708 742.267 340.618 762.571 371.005C782.874 401.391 795.371 436.316 798.953 472.686C802.535 509.055 797.092 545.747 783.107 579.51C769.121 613.274 747.025 643.067 718.775 666.252C690.525 689.436 656.993 705.295 621.15 712.425C585.307 719.554 548.258 717.734 513.286 707.126C478.315 696.517 446.499 677.448 420.657 651.606L483.644 588.62C499.127 604.103 518.19 615.529 539.144 621.885C560.098 628.241 582.296 629.332 603.772 625.06C625.248 620.788 645.339 611.286 662.266 597.395C679.192 583.503 692.431 565.652 700.811 545.422C709.19 525.192 712.451 503.208 710.305 481.417C708.159 459.625 700.672 438.7 688.506 420.493C676.341 402.286 659.874 387.361 640.562 377.039C621.251 366.717 599.692 361.317 577.796 361.317V272.24Z" stroke="white" stroke-width="177.782" mask="url(#path-2-inside-2_320_7)"/>
<mask id="path-3-inside-3_320_7" fill="white">
<path d="M222.254 272.24C185.709 272.24 149.727 281.253 117.497 298.481C85.2669 315.708 57.7827 340.618 37.4791 371.005C17.1756 401.391 4.67926 436.316 1.0972 472.686C-2.48489 509.055 2.95779 545.747 16.9431 579.51C30.9285 613.274 53.0248 643.067 81.2748 666.252C109.525 689.436 143.057 705.295 178.9 712.425C214.743 719.554 251.792 717.734 286.763 707.126C321.735 696.517 353.551 677.448 379.393 651.606L316.406 588.62C300.923 604.103 281.86 615.529 260.906 621.885C239.952 628.241 217.754 629.332 196.278 625.06C174.802 620.788 154.711 611.286 137.784 597.395C120.858 583.503 107.618 565.652 99.2389 545.422C90.8594 525.192 87.5983 503.208 89.7446 481.417C91.8908 459.625 99.3782 438.7 111.543 420.493C123.709 402.286 140.176 387.361 159.487 377.039C178.799 366.717 200.357 361.317 222.254 361.317V272.24Z"/>
</mask>
<path d="M222.254 272.24C185.709 272.24 149.727 281.253 117.497 298.481C85.2669 315.708 57.7827 340.618 37.4791 371.005C17.1756 401.391 4.67926 436.316 1.0972 472.686C-2.48489 509.055 2.95779 545.747 16.9431 579.51C30.9285 613.274 53.0248 643.067 81.2748 666.252C109.525 689.436 143.057 705.295 178.9 712.425C214.743 719.554 251.792 717.734 286.763 707.126C321.735 696.517 353.551 677.448 379.393 651.606L316.406 588.62C300.923 604.103 281.86 615.529 260.906 621.885C239.952 628.241 217.754 629.332 196.278 625.06C174.802 620.788 154.711 611.286 137.784 597.395C120.858 583.503 107.618 565.652 99.2389 545.422C90.8594 525.192 87.5983 503.208 89.7446 481.417C91.8908 459.625 99.3782 438.7 111.543 420.493C123.709 402.286 140.176 387.361 159.487 377.039C178.799 366.717 200.357 361.317 222.254 361.317V272.24Z" stroke="white" stroke-width="177.782" mask="url(#path-3-inside-3_320_7)"/>
<path fill-rule="evenodd" clip-rule="evenodd" d="M400 550L150 50H0L400 800L800 50H650L400 550Z" fill="white"/>
<path fill-rule="evenodd" clip-rule="evenodd" d="M400 450L200 50H300L400 249.999L500 50H600L400 450Z" fill="white"/>
</g>
<defs>
<clipPath id="clip0_320_7">
<rect width="800" height="800" fill="white"/>
</clipPath>
</defs>
</svg>
